<?xml version="1.0" encoding="utf-8"?>
<!-- Generator: Adobe Illustrator 24.0.2, SVG Export Plug-In . SVG Version: 6.00 Build 0)  -->
<svg version="1.1" id="Layer_1" xmlns="http://www.w3.org/2000/svg" xmlns:xlink="http://www.w3.org/1999/xlink" x="0px" y="0px"
	 viewBox="0 0 261 282" style="enable-background:new 0 0 261 282;" xml:space="preserve">
<style type="text/css">
	.st0{fill:#2D2D2D;}
	.st1{fill:#FFFFFF;}
	.st2{fill:#1D1D1B;}
</style>
<path class="st0" d="M255.66,206.3v6.47c-3.7,3.61-16.15,16.17-18.38,16.56c-7.95,1.93-11.55-7.76-5.87-12.85L6.88,216.43v-13.84
	c50.26,0.01,214.31,0.05,215.91,0.05h8.56c-4.66-4-3.33-13.54,4.06-13.2c2.83,0,3.13,0.25,11.54,8.46L255.66,206.3z"/>
<path class="st0" d="M51.9,27.56c0-3.29-0.05-3.4-7.71-12.47c-7.53-8.85-7.84-9.12-10.32-9.12c-2.52,0-2.84,0.27-10.37,9.12
	c-7.66,9.07-7.71,9.12-7.71,12.47c-0.5,7.61,6.94,9.77,10.95,5.24c0.68-0.76,0.9-0.59,1.04,6.85c0,1.3,0.05,2.81,0.05,4.53
	l-0.29,207.38c4.82-1.62,8.74-1.84,12.62-1.03c0-4.21,0.34-208.73,0.34-211.7v-2.79c0-1.53,1.34-2.52,2.48-1.85l0,0
	C47.16,37.01,52.3,33.61,51.9,27.56z"/>
<g>
	<path class="st1" d="M204.25,153.09c-0.14,2.32-1.62,10.16-2.12,12.69c-0.05,0.1-0.05,0.15-0.05,0.21
		c-0.05,0.21-0.09,0.41-0.14,0.62c-0.36,1.7-0.72,3.46-1.08,5.16c-0.05,0.26-0.14,0.52-0.18,0.83c-0.95,4.18-2.21,9.8-3.06,12.74
		c-10.19,35.53-31.46,66.52-53,77.09c-5.54,2.73-11,4.13-16.22,4.13c-15.46,0-28.39-11.91-36.37-33.52
		c-5.36-14.49-8.07-27.28-13.84-65.18l-0.41-2.78c-0.95-6.09-1.62-10.57-2.25-14.54c-0.04-0.1-0.09-0.21-0.09-0.31
		c-4.73-23.31-7.17-30.99-11.22-40.27c-4.78-11.09-9.96-17.89-17.4-22.84c-3.7-2.53-7.17-3.97-11.22-4.69
		c-1.26-0.26-2.66-0.41-4.42-0.52c-0.54-0.05-1.04-0.05-1.49-0.1c-1.17-0.1-1.94-0.15-2.48-0.15c-0.54,0-0.77,0.05-1.04,0.15
		c-0.18,0.05-0.41,0.1-0.59,0.1h-1.08c-1.31,0-3.92,0-5.32-2.89c-0.14-0.31-0.23-0.62-0.27-0.93c-0.05-0.31-0.05-0.52-0.09-0.72
		c-0.23-1.55-0.23-2.17,0.32-3.92c0.05-0.26,0.14-0.46,0.27-0.67c1.89-3.09,4.42-5.88,14.83-5.88h1.49c0.14,0,0.41,0,0.68-0.05
		c0.41-0.05,0.63-0.1,0.77-0.1h1.49c4.91,0,8.97,2.06,14.11,5c7.71,4.28,13.52,10,19.51,19.13c0.47,0.71,0.87,1.31,1.23,1.83l0,0.01
		c0.12,0.29,4.7,11.19,8.9,22.94c0.13,0.67,0.35,1.3,0.66,1.87c2.87,8.18,5.44,16.54,6.11,21.83c0,0.31,0.09,2.01,1.17,10.52
		c0,0.05,0,0.21,0,0.21c0.14,0.26,0.23,0.57,0.27,0.88c0,0,0,0,0,0.05c0.59,4.07,1.26,8.82,2.03,13.77
		c1.71,11.35,3.29,21.25,4.33,27.23c0.9,5,2.52,12.94,3.65,17.58c4.87,20.16,10.1,30.22,18.66,35.84c3.7,2.42,4.15,2.58,8.11,2.78
		c0.32,0.05,0.68,0.05,1.04,0.05c2.12,0,4.1-0.31,6.17-0.88c0.05,0,0.05,0,0.05,0c5.9-1.65,11.99-5.78,18.66-12.58
		c12.08-12.32,21.5-28.21,27.99-47.34c2.07-5.88,3.43-10.62,4.82-16.81c0.09-0.31,0.14-0.67,0.23-1.03
		c0.72-3.3,1.49-7.12,2.57-12.74c-0.05-0.21,0-0.46,0.05-0.72c1.58-7.48,2.7-10.42,5.86-12.07c0.86-0.46,1.71-0.88,2.66-0.88
		c1.08,0,1.98,0.52,2.97,1.19C203.26,146.33,204.43,149.01,204.25,153.09z"/>
	<path class="st2" d="M90.81,114.93c-0.09,3.35-2.12,5.11-4.06,5.11c-0.77,0-1.94-0.31-3.06-1.65c-0.23-0.27-0.43-0.58-0.61-0.9
		c-0.31-0.57-0.53-1.2-0.66-1.87c-0.13-0.65-0.15-1.34-0.09-2.03c0.18-1.8,0.95-3.25,2.07-4.02c0,0,0.05,0,0.05-0.05
		c1.22-0.88,1.71-0.98,2.07-0.98c0.5,0,1.22,0.31,2.39,1.03C90.41,110.49,90.99,111.21,90.81,114.93z"/>
	<path class="st2" d="M211.96,156.75l-0.14,1.08l-0.99,5.67l-1.58,9.08l-0.27,1.39c-1.94,8.46-5.68,21.71-7.66,27.23
		c-7.53,20.52-19.42,39.81-33.49,54.25c-15.68,16.19-23.75,20.58-37.63,20.58h-1.35c-6.94-0.1-8.52-0.41-12.39-1.8
		c-15.73-5.67-27.04-20.42-34.57-45.12c-3.97-12.84-7.26-29.5-11.4-57.45l-0.09-0.67v-0.15l-1.08-7.32c0-0.1,0-0.15-0.05-0.26
		l-2.52-14.7c-0.04-0.31-0.09-0.62-0.23-0.93v-0.05c0-0.1-0.09-1.29-0.09-1.29c0-0.15-0.05-0.31-0.05-0.46v-0.15
		c-0.05-0.57-0.18-1.55-0.63-3.51c-0.23-0.88-0.45-1.91-0.68-2.89c-6.04-26.92-13.93-42.29-24.74-48.42c0,0-0.05,0-0.05-0.05
		c-0.41-0.21-0.86-0.46-1.31-0.67c-0.05,0-0.14-0.05-0.18-0.05l-0.32-0.1c-0.45-0.21-0.99-0.41-1.62-0.57c-0.05,0-0.05,0-0.09-0.05
		c-0.14-0.05-0.27-0.05-0.41-0.05h-0.23c-1.08,0.1-4.1,0.21-7.17,0.21h-4.1c-4.78,0-6.94-0.26-9.55-2.68
		c-3.2-3.04-4.37-5.98-4.19-10.57c0.27-6.55,3.83-12.02,9.01-13.87c0.32-0.1,2.25-0.77,4.87-1.44c0.68-0.15,1.22-0.67,1.53-1.39
		c0.81-0.15,1.76-0.26,3.47-0.26c0.59,0,1.26,0,2.07,0.05l1.26,0.05c2.21,0.1,3.83,0.15,5.18,0.26c2.84,0.26,4.51,0.67,7.89,1.7
		C60.08,65.63,71.21,74.5,79.46,87.7c2.93,4.74,2.7,5.31,2.3,6.24c0,0,0,0.05-0.05,0.05c-0.63,1.6-2.07,1.91-3.2,1.91h-0.45
		c-0.69-0.05-1.19-0.08-1.67-0.26c-0.8-0.3-1.51-1.03-2.86-2.96l0-0.01c-0.36-0.52-0.77-1.12-1.23-1.83
		c-5.99-9.13-11.81-14.85-19.51-19.13c-5.14-2.94-9.19-5-14.11-5h-1.49c-0.14,0-0.36,0.05-0.77,0.1c-0.27,0.05-0.54,0.05-0.68,0.05
		h-1.49c-10.41,0-12.93,2.78-14.83,5.88c-0.14,0.21-0.23,0.41-0.27,0.67c-0.54,1.75-0.54,2.37-0.32,3.92
		c0.05,0.21,0.05,0.41,0.09,0.72c0.05,0.31,0.14,0.62,0.27,0.93c1.4,2.89,4.01,2.89,5.32,2.89h1.08c0.18,0,0.41-0.05,0.59-0.1
		c0.27-0.1,0.5-0.15,1.04-0.15c0.54,0,1.31,0.05,2.48,0.15c0.45,0.05,0.95,0.05,1.49,0.1c1.76,0.1,3.15,0.26,4.42,0.52
		c4.06,0.72,7.53,2.17,11.22,4.69c7.44,4.95,12.62,11.76,17.4,22.84c4.06,9.28,6.49,16.97,11.22,40.27c0,0.1,0.05,0.21,0.09,0.31
		c0.63,3.97,1.31,8.46,2.25,14.54l0.41,2.78c5.77,37.9,8.47,50.69,13.84,65.18c7.98,21.61,20.91,33.52,36.37,33.52
		c5.23,0,10.68-1.39,16.22-4.13c21.54-10.57,42.82-41.56,53-77.09c0.86-2.94,2.12-8.56,3.06-12.74c0.05-0.31,0.14-0.57,0.18-0.83
		c0.36-1.7,0.72-3.46,1.08-5.16c0.05-0.21,0.09-0.41,0.14-0.62c0-0.05,0-0.1,0.05-0.21c0.5-2.53,1.98-10.37,2.12-12.69
		c0.18-4.07-0.99-6.76-3.79-8.72c-0.99-0.67-1.89-1.19-2.97-1.19c-0.95,0-1.8,0.41-2.66,0.88c-3.15,1.65-4.28,4.59-5.86,12.07
		c-0.05,0.26-0.09,0.52-0.05,0.72c-1.08,5.62-1.85,9.44-2.57,12.74c-0.09,0.36-0.14,0.72-0.23,1.03c-1.4,6.19-2.75,10.93-4.82,16.81
		c-6.49,19.13-15.91,35.02-27.99,47.34c-6.67,6.81-12.75,10.93-18.66,12.58c0,0,0,0-0.05,0c-2.07,0.57-4.06,0.88-6.17,0.88
		c-0.36,0-0.72,0-1.04-0.05c-3.97-0.21-4.42-0.36-8.11-2.78c-8.56-5.62-13.79-15.68-18.66-35.84c-1.13-4.64-2.75-12.58-3.65-17.58
		c-1.04-5.98-2.61-15.88-4.33-27.23c-0.77-4.95-1.44-9.69-2.03-13.77c0-0.05,0-0.05,0-0.05c-0.04-0.31-0.14-0.62-0.27-0.88
		c0,0,0-0.15,0-0.21c-1.08-8.51-1.17-10.21-1.17-10.52c0.05-0.99,0.61-1.96,1.39-2.6c0.56-0.46,1.24-0.75,1.94-0.75h0.14
		c2.52,0.15,3.15,0.21,4.33,8.77l0.23,1.91v0.15c0.23,1.8,0.5,3.56,0.59,4.38c0,0.36,0.09,0.72,0.23,1.03c0,0,0.05,0.05,0.05,0.1
		c0.05,0.1,0.09,0.21,0.14,0.31c0,0.05,4.96,27.23,4.96,27.23l0.05,0.15c1.76,9.9,4.15,22.69,5.18,26.97
		c3.92,16.09,9.28,27.02,14.65,30.01c1.67,0.98,3.83,1.5,6.17,1.5c2.07,0,4.15-0.41,5.81-1.19c0.54-0.26,1.13-0.57,1.76-0.88
		c0,0,0,0,0.05,0c10.32-5.72,22.31-20.32,30.56-37.23c2.84-5.93,9.55-23.21,10.1-27.38l1.26-6.19c0-0.05,0.05-0.15,0.05-0.15
		l0.9-4.43l0.77-3.87c0-0.05,0-0.1,0-0.1l0.09-0.52c0,0,0.18-0.77,0.18-0.83c0.36-1.91,0.72-3.51,1.04-4.85
		c0.95-3.97,1.76-6.7,2.12-7.63c2.61-5.93,7.17-9.13,13.21-9.13c0.32,0,0.68,0,1.04,0.05c5.05,0.31,8.11,2.11,11,6.34
		C212.09,145.09,212.72,148.45,211.96,156.75z"/>
</g>
</svg>
